<svg xmlns="http://www.w3.org/2000/svg" width="50%" height="10%" viewBox="0 0 9340 10260" preserveAspectRatio="xMidYMid meet" class="mint">
<style>
  .border{
    fill:#1f1f1f;
  }
  .leafShadow{
    fill:#269b63;
  }
  .leafFill{
    fill:#38ce99;
  }
  .white{
    fill:#fefefe;
  }
  .mint{
    transform: translateY(50%);
  }
</style>
  <g class="border">
    <path d="M1052 10131c-100-10-131-29-151-91-13-40-12-50 19-164 171-626 507-1513 805-2122l103-212 54-25c29-14 233-91 453-171 1697-614 2535-922 2539-933 9-22-5-43-28-43-17 0-1206 430-2371 858-310 113-356 123-409 89-35-24-59-80-52-122 16-84 564-1010 618-1044 10-6 599-223 1310-481 711-259 1299-477 1307-485 19-19 6-45-22-45-14 0-508 176-1098 391-1145 417-1139 415-1197 372-35-26-55-85-43-128 17-61 411-586 705-939 1353-1626 3045-2894 5026-3771 312-138 330-144 389-122 47 17 74 57 74 109 0 39-15 66-154 273-221 328-356 559-524 895-395 788-636 1546-770 2421-66 432-123 702-209 1001-354 1218-1080 2311-2064 3107-956 772-2115 1243-3362 1367-184 18-809 28-948 15z" class="undefined"/>
    <path d="M984 9043c-38-8-71-56-137-203-301-671-483-1391-537-2125-13-181-13-690 0-870 30-405 93-768 207-1198 47-180 70-206 172-197 38 3 68 28 90 73 50 107 1033 2825 1033 2860 1 28-27 95-110 265-178 364-363 796-509 1187-55 147-67 171-96 189-25 16-82 26-113 19z" class="undefined"/>
    <path d="M1852 7123c-58-11-55-4-608-1523-370-1013-534-1478-535-1507-2-95 229-597 440-957 45-77 93-154 106-173 51-66 149-66 199 0 13 18 151 383 310 817 157 432 403 1107 547 1500 202 553 262 726 263 765 1 48-5 60-131 262-116 185-344 574-428 731-37 68-95 98-163 85z" class="undefined"/>
    <path d="M2634 5843c-56-11-65-33-410-984-185-508-426-1171-536-1474-241-660-240-658-232-703 7-36 108-177 277-386 111-137 358-408 396-435 62-44 143-34 185 22 13 18 142 358 286 757 145 399 384 1057 531 1463 148 407 272 756 275 776 8 53-11 90-111 216-125 156-272 352-414 552-67 95-130 177-139 182-23 12-82 20-108 14z" class="undefined"/>
    <path d="M3492 4743c-66-12-54 17-608-1508-289-792-529-1457-535-1477-19-71 0-108 104-199 132-115 359-290 531-409 131-92 153-103 191-103 51 0 96 28 118 75 18 38 960 2624 989 2712 31 98 26 109-146 291-183 194-309 332-444 487-56 64-112 120-124 123-38 11-52 12-76 8z" class="undefined"/>
    <path d="M4364 3765c-16-9-37-28-46-43-22-36-975-2657-983-2703-11-59 14-103 87-149 145-92 692-356 775-374 46-10 99 10 127 47 13 18 217 561 461 1232 373 1023 438 1208 439 1256 0 36-5 63-14 74-8 10-87 82-175 159-88 78-220 197-293 266-257 241-256 240-304 245-28 4-53 0-74-10z" class="undefined"/>
    <path d="M5332 2943c-57-11-60-17-494-1208-230-632-423-1169-429-1192-14-55 2-105 44-137 55-41 444-159 749-226 135-30 150-31 189-19 23 8 50 25 61 39 10 14 183 477 384 1030 264 723 367 1017 367 1048 0 60-18 81-174 194-74 54-235 176-358 270-123 95-234 178-245 184-28 15-66 22-94 17z" class="undefined"/>
    <path d="M6322 2213c-64-12-66-17-424-998-376-1031-371-1015-313-1075 16-17 45-34 65-40 128-33 791-81 914-66 42 6 63 14 82 34 20 20 94 211 297 767 289 791 293 806 251 862-11 15-111 82-221 149-110 66-272 167-359 224-230 149-237 152-292 143z" class="undefined"/>
    <path d="M7320 1573c-19-10-42-31-51-48-16-28-443-1192-476-1295-26-85 13-169 86-183 37-8 326 17 521 44 431 60 925 184 1316 330 190 71 369 147 398 170 29 23 45 71 39 115-9 62-36 79-278 179-444 184-974 435-1328 629-136 74-176 85-227 59z" class="undefined"/>
  </g>
  <g class="leafShadow">
    <path d="M1238 10010c-113-3-209-8-213-12-17-17 206-715 355-1113 136-362 305-758 467-1096l75-156 1466-532c807-293 1490-544 1519-557 66-31 95-76 95-144 0-33-7-61-21-84-24-38-91-76-135-76-14 0-628 219-1362 486-734 267-1337 484-1338 483-9-11 401-716 515-885l47-70 1300-473c1415-515 1347-486 1370-573 26-97-49-198-148-198-21 0-461 155-1120 394-596 217-1086 393-1088 391-12-12 426-587 662-869 461-552 1069-1167 1606-1627 1042-891 2172-1592 3488-2164 92-40 168-71 170-70 1 1-53 85-121 186-557 828-949 1718-1182 2684-58 241-96 437-145 760-23 149-55 335-71 415-150 731-444 1458-841 2080-561 878-1357 1615-2273 2102-815 433-1748 689-2605 714-96 2-195 6-220 7-25 1-138 0-252-3z" class="undefined"/>
    <path d="M965 8793c-131-290-251-626-334-938-58-218-80-322-120-570-62-382-81-620-81-1006 0-381 21-644 80-995 45-271 147-696 161-671 4 6 113 302 242 657 130 355 244 665 255 690 11 25 133 356 272 736l251 692-80 160c-156 311-356 772-507 1170-41 108-76 198-78 199-2 2-29-54-61-124z" class="undefined"/>
    <path d="M1882 6979c-91-243-502-1379-502-1387 0-6-122-345-271-753-177-486-268-751-265-765 13-52 148-354 236-529 83-166 270-499 276-492 1 1 133 364 294 807 161 443 303 828 315 855 29 65 485 1318 485 1334 0 6-42 78-93 159-126 199-240 390-363 611-93 165-104 182-112 160z" class="undefined"/>
    <path d="M2440 5078c-127-354-277-769-332-923-55-154-194-539-309-855-115-316-209-581-209-588 0-15 101-150 243-326 99-122 364-416 376-416 5 0 291 778 552 1507 54 149 103 280 109 290 6 10 102 270 214 577l203 560-92 115c-109 138-354 467-449 604-37 53-69 97-70 97-2 0-108-289-236-642z" class="undefined"/>
    <path d="M3325 4071c-108-300-343-949-521-1441-178-492-324-900-324-907 0-23 321-281 550-442 139-99 144-101 153-79 5 13 150 412 323 888 172 476 319 873 325 884 11 20 339 916 339 928 0 4-53 63-118 130-149 156-321 344-438 480l-92 106-197-547z" class="undefined"/>
    <path d="M4271 3241c-83-230-154-429-156-442-3-13-151-423-329-912l-324-887 98-55c203-114 652-327 664-314 2 2 144 391 316 864 172 473 316 865 320 870 6 8 234 629 242 661 2 6-55 62-127 124-159 139-328 294-456 417l-95 93-153-419z" class="undefined"/>
    <path d="M5263 2528c-55-156-106-301-113-323-7-22-147-409-311-860-165-450-299-824-299-830 0-21 451-156 697-209l112-24 9 27c94 264 580 1590 596 1626 12 28 47 117 76 199 47 132 52 149 37 157-32 18-335 244-510 380-98 77-181 139-185 139-4 0-53-127-109-282z" class="undefined"/>
    <path d="M6307 1963c-26-71-47-133-47-138 0-6-130-367-289-804-176-485-284-794-277-797 56-19 847-78 859-63 10 11 527 1443 527 1458 0 11-59 52-177 123-145 87-383 237-524 331l-26 17-46-127z" class="undefined"/>
    <path d="M7372 1433c-15-37-459-1258-458-1259 2-4 312 26 422 40 515 68 1055 213 1537 412 76 31 135 60 130 64-4 4-28 15-53 24-371 142-1019 444-1427 664-73 40-135 72-138 72-3 0-9-8-13-17z" class="undefined"/>
  </g>
  <g class="leafFill">
    <path d="M1238 10010c-113-3-209-8-213-12-17-17 206-715 355-1113 167-446 498-1201 531-1213 5-2 9-11 9-21 0-14 288-122 1468-550 807-293 1490-544 1519-557 66-31 95-76 95-144 0-33-7-61-21-84-24-38-91-76-135-76-14 0-628 219-1362 486-734 267-1337 484-1338 483-9-11 401-716 515-885l47-70 1300-473c1415-515 1347-486 1370-573 26-97-49-198-148-198-21 0-461 155-1120 394-596 217-1086 393-1088 391-12-12 426-587 662-869 461-552 1069-1167 1606-1627 1042-891 2172-1592 3488-2164 92-40 168-71 170-70 1 1-53 85-121 186-557 828-949 1718-1182 2684-58 241-96 437-145 760-23 149-55 335-71 415-416 2028-1807 3696-3725 4466-630 252-1369 412-1994 430-96 2-195 6-220 7-25 1-138 0-252-3z" class="undefined"/>
    <path d="M965 8793c-170-376-329-857-407-1232l-23-110 48-143c71-211 169-470 254-668 102-240 325-694 334-678 3 7 122 331 263 719l257 707-80 160c-156 311-356 772-507 1170-41 108-76 198-78 199-2 2-29-54-61-124z" class="undefined"/>
    <path d="M1882 6979c-104-277-502-1380-502-1389 0-16 105-184 238-380 112-166 343-480 352-480 5 0 473 1280 478 1310 2 10-39 85-91 167-126 200-240 391-363 612-93 165-104 182-112 160z" class="undefined"/>
    <path d="M2445 5095c-125-344-229-634-232-644-3-14 29-57 119-158 156-175 516-535 530-531 6 2 104 260 218 573l207 569-92 115c-109 138-354 467-449 604-37 53-69 97-70 97-2 0-106-281-231-625z" class="undefined"/>
    <path d="M3326 4079c-108-296-196-544-195-551 1-22 564-460 695-540 8-5 61 129 179 452l167 460-40 47c-22 27-52 59-67 73-41 37-347 370-451 492l-92 106-196-539z" class="undefined"/>
    <path d="M4290 3293c-73-203-144-396-156-430l-23-62 91-57c225-139 654-372 665-361 5 6 231 621 236 643 1 6-56 62-128 124-158 138-328 293-456 417l-95 93-134-367z" class="undefined"/>
    <path d="M5262 2528c-56-156-102-286-102-289 0-4 21-14 48-24 26-10 88-37 137-60 50-23 122-54 160-68 163-61 432-157 441-157 5 0 38 79 74 176 56 156 61 177 47 185-32 18-335 244-510 380-98 77-181 139-185 139-4 0-54-127-110-282z" class="undefined"/>
    <path d="M6307 1963c-26-70-44-130-39-134 21-18 827-211 810-194-2 2-79 49-173 106-138 83-389 241-526 332l-26 17-46-127z" class="undefined"/>
  </g>
  <g class="white">
    <path d="M1238 10010c-113-3-209-8-213-12-17-17 206-715 355-1113 137-365 370-910 490-1143l39-77 1 240c0 311 27 609 80 918l12 68 42-5c718-94 1274-227 1862-447 859-320 1671-794 2344-1368 236-201 644-598 769-749 24-28 46-51 48-49 5 6-108 251-187 406-734 1439-2016 2534-3556 3034-530 172-1117 278-1614 293-96 2-195 6-220 7-25 1-138 0-252-3z" class="undefined"/>
  </g>
</svg>
