
<svg version="1.0" xmlns="http://www.w3.org/2000/svg"
 width="200%" height="999.000000pt" viewBox="0 0 1280.000000 999.000000"
 preserveAspectRatio="xMidYMid meet">

<style>
  .vine{
    fill: #269b63;
    opacity: 0;
  }
  .leaf{
    fill: #38ce99;
    opacity: 0;
  }
  .dot{
    fill: #269b63;
  }
  .circle{
    fill: #38ce99;
  }
</style>
<g transform="translate(0.000000,999.000000) scale(0.100000,-0.100000)"
fill="#000000" stroke="none">
<path d="M6271 9975 c-154 -43 -289 -179 -342 -344 -30 -93 -37 -273 -14 -361
30 -117 149 -326 249 -439 27 -30 44 -57 39 -62 -5 -5 -26 -4 -48 3 -78 22
-445 5 -420 -20 4 -4 72 -7 153 -8 117 0 164 -5 232 -22 209 -55 397 -194 539
-399 17 -25 30 -33 52 -33 25 0 29 4 29 29 0 38 -50 102 -199 256 -151 155
-231 276 -280 423 -36 105 -26 177 30 211 73 45 159 34 221 -29 35 -34 38 -42
38 -92 0 -47 -4 -60 -27 -82 -37 -37 -59 -31 -55 16 5 50 -27 83 -71 74 -73
-15 -86 -65 -33 -124 32 -34 39 -37 89 -37 45 0 60 5 82 25 39 36 55 73 55
123 0 54 -28 99 -88 141 -35 25 -55 31 -110 34 -84 4 -127 -17 -159 -78 -38
-72 -29 -162 32 -312 14 -37 25 -75 23 -84 -2 -15 -9 -12 -41 16 -63 55 -165
190 -211 280 -55 105 -75 192 -58 248 29 96 83 118 142 57 43 -45 74 -44 78 1
2 25 -3 37 -28 58 -75 62 -204 7 -217 -93 -9 -64 -20 -57 -27 18 -16 177 63
321 175 321 53 0 112 -36 173 -105 59 -67 95 -86 121 -65 46 38 -24 144 -130
198 -36 18 -67 26 -111 26 -52 1 -68 -4 -114 -32 -29 -18 -55 -31 -57 -28 -9
9 67 94 122 136 121 93 216 93 374 1 94 -55 133 -62 156 -28 72 110 -178 234
-364 182z" class="vine"/>
<path d="M6578 8721 c-28 -28 -49 -53 -47 -56 3 -2 31 9 63 25 32 17 70 30 83
30 31 0 22 -16 -14 -25 -29 -7 -113 -64 -113 -76 0 -4 26 -16 58 -27 l57 -19
94 60 c52 33 105 62 118 66 20 5 12 11 -49 35 -40 16 -101 31 -136 34 l-62 5
-52 -52z" class="leaf"/>
<path d="M6393 8509 c-53 -16 -84 -69 -99 -174 -3 -23 -2 -35 3 -28 5 6 47 30
94 51 83 38 86 41 97 83 6 24 10 45 8 47 -6 5 -90 -31 -110 -47 -16 -14 -18
-14 -14 -1 4 13 20 26 84 67 18 11 17 12 -6 12 -14 -1 -39 -5 -57 -10z" class="leaf"/> 
<path d="M5134 8420 c-251 -66 -465 -235 -577 -456 -59 -117 -72 -177 -72
-339 0 -126 4 -163 23 -230 46 -164 189 -402 275 -461 44 -29 47 -29 47 -4 0
11 -30 53 -67 92 -123 134 -200 280 -225 427 -11 65 -10 77 11 148 36 124 96
239 157 300 50 50 56 53 103 53 63 0 81 -22 56 -69 -20 -39 -19 -51 3 -51 28
0 42 20 42 60 0 53 -29 80 -88 81 l-47 1 35 15 c50 22 133 28 170 13 31 -13
60 -54 60 -87 0 -10 -14 -45 -31 -79 -36 -67 -35 -99 3 -85 79 29 92 201 18
241 -36 19 -21 29 20 13 60 -24 115 -75 129 -122 9 -32 9 -59 -1 -126 -10 -74
-10 -88 2 -95 21 -13 25 -13 51 9 19 15 24 30 27 83 7 109 -50 204 -150 249
-45 20 -69 24 -153 24 -86 0 -107 -4 -155 -26 -102 -48 -160 -118 -230 -276
-21 -46 -40 -87 -44 -90 -3 -4 -3 16 0 43 11 97 44 210 86 294 34 71 58 101
142 185 112 110 196 165 331 212 71 25 94 28 200 28 115 0 123 -1 188 -33 132
-65 221 -189 222 -312 0 -87 -21 -117 -121 -166 -91 -45 -134 -95 -134 -155 0
-49 27 -69 93 -69 62 0 116 28 160 82 72 89 101 179 95 295 -5 98 -37 172
-108 247 -124 131 -351 188 -546 136z" class="vine"/>
<path d="M2079 8312 c-43 -21 -61 -56 -55 -105 8 -68 62 -100 99 -59 24 27 22
72 -2 72 -11 0 -23 -4 -26 -10 -13 -22 -35 -10 -35 19 0 43 10 61 38 72 60 23
130 -34 195 -159 44 -83 62 -137 88 -260 29 -139 67 -255 115 -349 23 -46 39
-83 37 -83 -3 0 -19 12 -37 27 -54 45 -145 83 -202 83 -98 0 -184 -46 -215
-114 -52 -116 10 -246 118 -246 39 0 50 5 84 39 22 21 39 48 39 60 0 25 -33
61 -57 62 -64 4 -88 -15 -86 -71 1 -22 -3 -40 -8 -40 -40 0 -79 57 -79 115 0
95 77 160 190 160 106 0 136 -21 496 -350 128 -117 202 -173 321 -244 177
-105 566 -298 664 -329 102 -33 249 -62 314 -62 99 -1 92 -12 -33 -55 -173
-60 -277 -112 -534 -267 -369 -221 -587 -324 -802 -378 -137 -34 -249 -45
-305 -30 -96 26 -140 114 -87 177 15 17 47 39 72 49 39 15 52 16 93 5 69 -18
100 -1 64 34 -30 31 -167 6 -231 -42 -68 -51 -79 -129 -26 -185 15 -15 23 -28
17 -28 -20 0 -197 71 -243 97 -112 64 -150 96 -176 150 -34 70 -32 170 5 222
31 43 92 71 156 71 45 0 54 -4 83 -34 42 -45 71 -54 89 -30 18 24 17 31 -10
58 -40 40 -169 58 -249 36 -78 -22 -138 -103 -137 -185 0 -22 8 -64 18 -94
l19 -53 -65 63 c-99 97 -263 280 -280 314 -28 53 -2 223 46 301 11 19 51 50
101 78 67 39 81 51 78 69 -5 33 -66 28 -120 -9 -76 -53 -119 -144 -139 -299
-6 -44 -12 -85 -14 -91 -2 -8 -26 -1 -67 18 -135 65 -225 54 -448 -52 -111
-54 -165 -74 -216 -81 -75 -10 -152 -1 -212 28 -87 41 -183 184 -218 323 -26
101 2 176 78 216 43 22 54 16 17 -9 -39 -26 -48 -60 -23 -88 21 -23 62 -25 92
-3 16 11 22 25 22 53 0 124 -145 121 -201 -4 -24 -52 -24 -113 1 -209 38 -149
117 -252 234 -307 129 -61 252 -49 426 40 99 50 168 77 177 68 3 -3 -12 -22
-32 -43 -87 -86 -84 -191 8 -271 83 -72 191 -60 227 27 15 37 6 91 -19 114
-24 22 -83 31 -109 17 -47 -25 -29 -91 25 -91 29 0 30 18 1 22 -33 5 -35 35
-3 50 25 11 30 10 51 -15 28 -33 31 -73 8 -105 -70 -101 -252 27 -220 154 15
60 111 121 205 130 120 13 178 -18 287 -153 98 -121 295 -309 389 -373 157
-106 340 -174 505 -187 75 -6 75 -6 40 -19 -32 -12 -27 -13 68 -13 118 -1 158
8 332 77 151 59 210 92 424 235 157 105 324 202 333 194 1 -2 -37 -43 -85 -93
-89 -91 -171 -200 -302 -404 -257 -401 -408 -553 -585 -590 -96 -20 -157 17
-157 94 0 38 13 66 54 116 31 39 36 68 12 77 -45 17 -114 -76 -114 -152 0 -30
9 -55 31 -89 17 -26 29 -49 26 -52 -3 -3 -28 5 -56 17 -92 39 -151 128 -151
228 0 35 6 47 35 74 58 54 44 114 -22 92 -68 -24 -84 -166 -30 -272 73 -142
205 -198 378 -159 200 44 256 97 579 536 201 274 263 350 377 471 89 93 164
142 186 120 14 -15 -21 -82 -155 -301 -195 -318 -362 -534 -583 -756 -269
-270 -508 -434 -811 -558 -171 -70 -303 -81 -460 -40 -220 57 -301 179 -224
336 21 42 21 42 1 18 -26 -32 -61 -122 -61 -158 1 -40 35 -108 72 -143 73 -67
194 -108 328 -110 l75 0 -55 -21 c-49 -19 -77 -21 -250 -21 -170 -1 -205 2
-275 21 -247 67 -395 209 -411 393 -5 54 -2 71 18 109 39 76 120 102 149 49
15 -29 4 -65 -23 -72 -28 -8 -34 -2 -18 19 12 13 11 17 0 24 -17 10 -40 -5
-40 -26 0 -8 11 -19 25 -26 35 -16 75 12 75 51 0 45 -29 72 -81 78 -41 5 -50
2 -82 -26 -48 -43 -72 -114 -63 -194 22 -210 223 -367 540 -422 112 -19 204
-19 331 0 477 72 880 279 1257 644 224 217 397 437 666 851 219 336 203 317
315 373 247 122 481 160 742 123 50 -7 92 -12 94 -10 9 8 -11 35 -34 44 -77
29 -271 52 -515 60 -387 13 -540 38 -683 112 -149 78 -239 187 -223 271 11 57
35 71 111 63 63 -6 66 -6 77 19 9 21 8 28 -7 45 -47 52 -137 42 -187 -21 -58
-72 -47 -165 28 -248 78 -86 41 -69 -53 26 -163 163 -205 317 -116 424 53 63
103 71 255 42 62 -12 96 -14 115 -7 51 17 40 78 -20 114 -41 26 -163 27 -236
3 -57 -18 -133 -79 -156 -124 -8 -15 -20 -52 -26 -81 -9 -42 -13 -49 -20 -33
-23 58 0 245 40 323 46 91 151 150 296 166 86 10 153 34 171 61 14 21 14 27 0
54 -24 46 -53 61 -118 61 -155 0 -324 -121 -398 -285 -86 -188 -46 -454 95
-638 20 -27 35 -50 33 -52 -7 -7 -126 53 -214 108 -186 115 -379 275 -477 395
-106 130 -147 219 -226 488 -27 93 -56 187 -64 209 -24 66 -84 179 -113 214
-49 59 -120 80 -175 53z" class="vine"/>
<path d="M8050 8283 c-38 -14 -74 -50 -92 -90 -28 -63 -39 -197 -28 -328 22
-256 24 -339 7 -390 -24 -69 -101 -189 -149 -230 -72 -61 -132 -77 -303 -82
-98 -3 -202 1 -299 11 -196 21 -301 20 -416 -4 -52 -11 -97 -20 -100 -20 -2 0
11 13 30 29 l34 28 -56 7 c-54 7 -58 6 -109 -33 -29 -22 -81 -53 -116 -68 -65
-29 -74 -44 -49 -78 13 -18 15 -18 77 7 82 34 177 48 334 48 223 0 314 -36
449 -180 72 -77 109 -142 126 -227 14 -64 8 -75 -61 -122 -100 -68 -116 -127
-41 -158 45 -19 105 -8 110 20 3 14 -5 17 -52 17 -50 0 -56 2 -56 21 0 23 48
73 101 104 26 16 34 28 34 48 -1 15 2 27 5 26 3 0 34 -34 69 -76 127 -149 214
-197 358 -198 73 0 84 3 107 24 28 26 34 67 15 103 -14 27 -69 48 -124 48 -50
0 -64 -15 -45 -49 15 -28 60 -29 60 -1 0 27 22 25 48 -3 71 -75 -48 -125 -183
-78 -120 42 -193 121 -316 339 -42 75 -92 149 -123 180 l-51 54 95 -47 c52
-26 144 -76 203 -112 136 -82 278 -149 533 -251 550 -221 820 -274 1164 -227
118 16 767 144 887 174 175 45 419 139 599 230 110 56 215 84 279 75 22 -3 84
-28 138 -56 154 -77 243 -76 312 4 69 81 69 156 0 198 -38 23 -83 26 -91 6 -3
-8 6 -39 20 -70 30 -66 33 -107 9 -129 -47 -42 -133 -29 -266 39 -100 51 -182
65 -262 45 -26 -7 -49 -11 -51 -9 -1 2 40 59 93 128 220 287 301 440 318 605
7 68 -7 195 -30 273 -19 64 -86 148 -139 175 -87 45 -202 28 -268 -41 -45 -47
-58 -72 -58 -114 0 -45 23 -75 68 -88 56 -15 78 -12 111 16 57 47 32 94 -50
94 -59 0 -65 18 -20 68 77 84 191 67 264 -40 59 -87 70 -127 71 -263 0 -106
-3 -129 -28 -200 -15 -44 -43 -109 -62 -145 -48 -91 -250 -352 -336 -433 -72
-67 -207 -167 -227 -167 -6 0 5 32 24 71 74 154 85 323 30 434 -39 79 -79 105
-154 104 -75 -1 -116 -17 -45 -18 76 -1 132 -35 166 -100 24 -46 28 -65 28
-135 0 -177 -91 -334 -233 -404 -227 -112 -769 -226 -1139 -239 -172 -6 -197
-1 -145 30 12 7 59 36 105 63 145 85 233 180 281 302 11 28 27 102 35 165 9
71 24 135 39 168 50 112 188 199 327 207 131 8 198 -29 226 -124 19 -66 12
-133 -19 -189 -26 -45 -79 -85 -114 -85 -38 0 -90 26 -109 54 -39 60 -11 151
44 144 41 -5 50 -32 24 -68 -18 -24 -20 -30 -7 -30 22 0 65 45 65 67 0 39 -29
63 -75 63 -37 0 -50 -6 -79 -34 -60 -61 -57 -137 10 -195 41 -37 69 -45 134
-39 65 6 111 42 146 113 35 73 38 188 6 252 -27 52 -82 98 -138 113 -44 13
-174 9 -223 -6 l-25 -7 24 34 c77 107 197 198 281 214 80 15 165 -32 176 -97
5 -32 1 -41 -25 -68 -35 -35 -71 -39 -96 -11 -23 25 -12 42 22 39 23 -3 27 1
27 21 0 13 -8 29 -17 35 -44 27 -85 -79 -43 -110 38 -28 122 -7 145 35 20 39
12 88 -22 127 -62 71 -153 84 -249 37 -63 -31 -407 -360 -449 -429 l-25 -41
-28 66 c-34 84 -102 177 -159 218 -101 72 -238 84 -238 19 0 -35 17 -43 105
-48 97 -6 146 -28 203 -94 59 -66 84 -138 90 -261 8 -176 -24 -278 -122 -381
-91 -97 -273 -202 -395 -228 -295 -62 -766 90 -1421 460 -113 64 -239 130
-280 147 -41 17 -76 32 -78 34 -1 1 95 2 215 2 394 -2 461 35 638 349 101 179
136 223 200 253 145 68 306 -42 251 -173 -19 -45 -41 -46 -56 -2 -18 54 -75
64 -115 20 -32 -34 -31 -59 1 -89 53 -49 144 -41 185 17 56 77 19 210 -71 256
-38 20 -56 23 -116 19 -110 -6 -181 -56 -251 -174 l-28 -48 -6 100 c-4 55 -12
135 -18 178 -28 199 1 372 71 421 33 24 84 20 102 -6 9 -12 16 -31 16 -41 0
-15 -5 -18 -26 -14 -30 5 -54 -15 -54 -47 0 -27 14 -41 53 -50 37 -9 77 30 77
74 0 89 -76 151 -150 123z" class="vine"/>
<path d="M4090 7968 c-25 -5 -76 -19 -115 -30 l-70 -22 37 -6 c42 -8 90 -37
168 -104 71 -61 120 -86 167 -85 46 0 105 20 110 35 4 13 -112 93 -178 124
-24 11 -39 20 -34 21 44 6 94 -15 193 -77 28 -19 52 -30 52 -25 0 5 -30 41
-67 79 -93 94 -151 114 -263 90z" class="leaf"/>
<path d="M7482 7495 c-28 -12 -182 -114 -182 -119 0 -2 22 -2 48 -2 39 1 69
-9 157 -53 99 -48 114 -53 161 -49 54 5 140 50 129 67 -11 18 -187 81 -226 81
-27 0 -38 4 -33 11 11 19 132 4 203 -25 35 -14 66 -24 68 -22 2 2 -35 30 -83
62 -79 53 -93 59 -148 61 -39 2 -73 -2 -94 -12z" class="leaf"/>
<path d="M2737 7470 c-28 -22 -74 -100 -59 -100 5 0 19 11 31 24 24 26 89 61
97 53 3 -3 -11 -15 -30 -27 -31 -18 -76 -68 -76 -83 0 -2 24 -7 53 -10 l52 -5
73 69 c39 38 80 69 89 69 13 0 14 3 6 11 -7 7 -56 14 -110 17 -90 4 -100 2
-126 -18z" class="leaf"/>
<path d="M4898 7346 c-71 -15 -104 -44 -123 -110 -22 -72 -19 -75 22 -22 32
42 77 76 100 76 4 0 -9 -17 -28 -37 -77 -81 -87 -113 -35 -113 75 0 90 9 137
78 24 36 61 83 82 104 l37 38 -67 -1 c-38 0 -94 -6 -125 -13z" class="leaf"/>
<path d="M7950 7291 c8 -6 22 -11 30 -11 26 0 124 -50 153 -78 37 -35 35 -50
-3 -18 -31 26 -195 85 -206 74 -7 -8 14 -75 34 -106 21 -32 55 -48 168 -77 78
-20 106 -33 132 -58 l33 -32 -7 30 c-42 179 -82 242 -170 264 -68 17 -183 26
-164 12z" class="leaf"/>
<path d="M2576 7209 c-80 -19 -114 -63 -170 -219 l-27 -75 29 28 c17 16 61 38
108 53 43 14 87 33 98 42 19 18 48 71 61 111 7 23 6 24 -26 17 -19 -3 -56 -20
-82 -36 -57 -35 -61 -36 -48 -11 6 10 42 35 81 55 38 20 70 39 70 42 0 7 -51
3 -94 -7z" class="leaf"/>
<path d="M8972 7086 c-74 -30 -136 -57 -138 -59 -3 -2 17 -6 44 -9 50 -5 88
-25 202 -105 62 -43 67 -45 117 -40 48 5 138 40 149 59 7 11 -126 86 -178 100
-60 15 -62 28 -5 28 31 0 68 -12 130 -44 48 -24 87 -41 87 -39 0 16 -92 111
-129 135 -70 44 -118 39 -279 -26z" class="leaf"/>
<path d="M7693 7119 c-50 -14 -83 -61 -83 -119 0 -43 5 -54 35 -85 31 -30 42
-35 85 -35 60 0 104 33 121 90 26 88 -66 175 -158 149z m107 -54 c36 -36 34
-99 -3 -131 -62 -54 -157 -17 -157 61 0 46 13 71 48 90 35 19 80 11 112 -20z" class="circle"/>
<path d="M7700 7025 c-10 -12 -10 -21 -1 -41 13 -29 47 -30 65 -1 23 37 -36
76 -64 42z" class="dot"/>
<path d="M3908 7074 c54 -46 66 -69 96 -192 31 -126 56 -174 107 -212 40 -29
166 -77 176 -67 8 8 -25 113 -58 187 -17 36 -44 80 -61 98 -45 46 -20 40 36
-9 50 -44 84 -102 122 -209 l24 -65 -4 105 c-2 58 -9 122 -16 143 -15 51 -73
113 -133 143 -39 20 -308 114 -326 114 -3 0 14 -16 37 -36z" class="leaf"/>
<path d="M2843 6964 c-85 -74 -90 -121 -29 -302 l23 -67 6 41 c5 30 22 58 67
109 65 74 78 109 61 171 -19 67 -28 73 -55 40 -14 -16 -37 -54 -53 -85 -22
-43 -29 -51 -31 -35 -4 25 14 70 53 132 14 23 22 42 18 42 -5 0 -32 -21 -60
-46z" class="leaf"/>
<path d="M919 6963 c24 -31 33 -57 47 -133 19 -116 31 -145 75 -188 33 -32
107 -77 115 -70 4 5 -23 125 -38 163 -6 17 -21 44 -32 60 l-20 30 29 -25 c34
-31 82 -129 91 -187 10 -65 24 -52 24 23 0 148 -34 196 -208 302 -57 34 -105
62 -108 62 -3 0 9 -17 25 -37z" class="leaf"/>
<path d="M4609 6897 c-64 -43 -72 -132 -18 -187 54 -54 128 -51 179 6 50 58
39 142 -26 185 -39 26 -93 24 -135 -4z m114 -19 c34 -18 46 -40 47 -85 0 -103
-147 -127 -179 -30 -28 83 56 156 132 115z" class="circle"/>
<path d="M4663 6804 c-8 -21 13 -42 28 -27 13 13 5 43 -11 43 -6 0 -13 -7 -17
-16z" class="dot"/>
<path d="M8480 6883 c-57 -9 -91 -26 -118 -58 -30 -34 -64 -111 -76 -175 l-7
-35 27 45 c39 65 60 90 96 117 47 34 56 28 17 -11 -19 -19 -51 -66 -72 -105
l-38 -71 41 0 c49 0 98 19 125 49 11 12 40 64 65 114 32 65 55 98 79 114 l34
23 -74 -1 c-41 -1 -85 -4 -99 -6z" class="leaf"/>
<path d="M9505 6760 c-30 -12 -64 -53 -75 -89 -28 -99 85 -185 179 -137 40 21
61 59 61 109 0 87 -88 149 -165 117z m104 -47 c65 -60 30 -163 -54 -163 -47 0
-71 14 -91 51 -20 40 -11 82 28 114 39 33 80 32 117 -2z" class="circle"/>
<path d="M9532 6643 c2 -10 10 -18 18 -18 8 0 16 8 18 18 2 12 -3 17 -18 17
-15 0 -20 -5 -18 -17z" class="dot"/>
<path d="M10878 6753 c-71 -45 -69 -161 4 -199 36 -19 98 -18 126 2 28 19 52
65 52 99 0 88 -106 145 -182 98z m112 -18 c38 -20 57 -74 40 -116 -26 -63 -96
-78 -149 -33 -26 21 -31 33 -31 69 0 36 5 48 31 69 35 29 67 33 109 11z" class="circle"/>
<path d="M10911 6676 c-7 -8 -10 -24 -6 -35 14 -45 79 -30 73 17 -2 21 -9 28
-29 30 -14 2 -31 -4 -38 -12z" class="dot"/>
<path d="M3409 6617 c-67 -44 -88 -135 -46 -197 36 -54 71 -74 127 -74 146 0
203 190 81 271 -23 16 -49 23 -81 23 -32 0 -58 -7 -81 -23z m131 -22 c42 -21
60 -53 60 -103 0 -37 -6 -50 -34 -78 -44 -44 -99 -47 -145 -9 -64 54 -59 142
11 185 39 24 69 25 108 5z" class="circle"/>
<path d="M3459 6514 c-9 -11 -10 -20 -2 -32 25 -41 86 -14 63 27 -13 25 -42
27 -61 5z" class="dot"/>
<path d="M10010 6456 c0 -2 30 -13 68 -25 77 -23 155 -69 172 -102 13 -23 2
-21 -32 9 -20 17 -208 83 -219 76 -10 -6 9 -73 33 -112 26 -42 76 -67 183 -92
98 -23 119 -32 158 -68 32 -30 32 -28 8 63 -35 134 -72 192 -139 221 -43 18
-232 42 -232 30z" class="leaf"/>
<path d="M2765 6396 c32 -32 52 -66 85 -149 29 -75 50 -113 69 -126 44 -30
147 -56 170 -42 16 10 -43 132 -90 186 -22 25 -27 35 -15 35 28 0 83 -59 122
-132 44 -84 54 -74 34 34 -25 144 -81 180 -341 222 l-76 13 42 -41z" class="leaf"/>
<path d="M9823 6428 c-26 -5 -50 -19 -63 -35 -20 -26 -52 -116 -64 -186 l-7
-39 33 25 c18 14 44 28 58 32 54 16 117 55 127 78 7 14 15 41 18 61 l7 35 -32
-9 c-18 -5 -44 -17 -57 -25 -14 -9 -27 -14 -30 -11 -10 9 19 36 59 57 21 11
38 22 38 24 0 7 -39 4 -87 -7z" class="leaf"/>
<path d="M4872 6359 c-290 -178 -448 -558 -314 -753 65 -95 165 -133 225 -86
29 23 38 75 15 98 -17 17 -53 15 -68 -3 -16 -20 -5 -45 20 -45 23 0 26 10 8
28 -9 9 -9 12 3 12 38 0 51 -46 21 -73 -45 -41 -130 -8 -186 71 -28 39 -31 51
-34 140 -5 127 9 199 58 297 50 102 118 177 241 271 143 108 148 128 11 43z" class="vine"/>
<path d="M8220 6387 c-75 -25 -104 -64 -148 -194 -29 -90 -30 -111 -1 -76 25
29 77 43 206 53 159 13 207 33 241 100 35 70 31 81 -25 74 -95 -11 -209 -37
-248 -56 l-40 -19 38 34 c42 38 114 63 217 74 50 5 59 8 40 14 -41 11 -242 8
-280 -4z" class="leaf"/>
<path d="M87 6189 c-28 -17 -49 -73 -38 -103 21 -55 51 -40 51 27 0 47 27 77
63 70 36 -7 99 -63 137 -122 23 -37 45 -56 80 -73 27 -13 49 -27 49 -33 0 -5
-39 -38 -87 -72 -192 -138 -272 -233 -317 -374 -39 -125 -28 -207 33 -242 63
-37 162 13 162 81 0 51 -51 79 -84 46 -23 -23 -20 -43 9 -54 31 -12 32 -24 3
-44 -56 -39 -118 0 -118 74 0 43 33 156 62 215 47 93 172 225 273 290 51 33
210 98 225 93 5 -2 -16 -23 -47 -48 -84 -67 -160 -192 -177 -290 -6 -32 -5
-33 6 -10 60 129 79 161 128 210 77 79 134 104 242 108 110 5 181 -9 478 -97
354 -103 442 -122 552 -119 103 3 101 4 -96 42 -76 15 -240 57 -365 93 -576
167 -620 175 -768 150 -135 -24 -177 -9 -249 90 -64 87 -86 103 -143 103 -25
0 -54 -5 -64 -11z" class="vine"/>
<path d="M3990 6111 c0 -13 87 -119 108 -130 9 -5 14 -13 10 -17 -10 -9 -51
19 -110 74 l-48 45 15 -43 c9 -24 26 -58 40 -75 40 -54 78 -65 212 -65 l118 0
-37 22 c-25 14 -56 49 -88 99 -37 56 -59 80 -82 88 -38 13 -138 15 -138 2z" class="leaf"/>
<path d="M1604 6036 c-41 -18 -64 -52 -64 -96 0 -99 121 -144 184 -69 48 57
29 136 -40 165 -40 17 -41 17 -80 0z m100 -47 c29 -34 32 -50 14 -82 -17 -32
-39 -46 -73 -46 -34 0 -56 14 -73 46 -18 32 -15 48 14 82 19 23 34 31 59 31
25 0 40 -8 59 -31z" class="circle"/>
<path d="M1635 5950 c-4 -6 -3 -16 3 -22 6 -6 12 -6 17 2 4 6 3 16 -3 22 -6 6
-12 6 -17 -2z" class="dot"/>
<path d="M1090 5798 c-89 -46 -100 -70 -100 -220 0 -67 4 -119 10 -123 6 -3
10 2 10 13 0 30 33 65 102 110 75 49 88 68 94 136 9 96 -15 96 -105 1 -48 -50
-53 -53 -47 -28 4 15 33 54 64 86 31 31 52 57 46 57 -6 0 -39 -15 -74 -32z" class="leaf"/>
<path d="M10953 5724 c-54 -53 -63 -66 -63 -97 0 -50 16 -55 56 -16 43 42 45
26 2 -18 -31 -32 -31 -33 -9 -33 38 0 79 53 86 113 4 29 3 66 -2 82 l-8 30
-62 -61z" class="leaf"/>
<path d="M10625 5712 c14 -114 71 -182 154 -182 l35 0 -46 29 c-41 26 -67 51
-54 51 3 0 30 -12 60 -27 31 -15 58 -24 62 -20 3 3 3 23 -1 44 -7 38 -63 103
-90 103 -7 0 -38 13 -70 30 l-56 30 6 -58z" class="leaf"/>
<path d="M3765 5725 c-107 -38 -140 -172 -61 -251 111 -111 291 -14 262 140
-17 88 -115 142 -201 111z m123 -43 c48 -31 64 -94 38 -155 -37 -90 -176 -94
-222 -6 -59 116 74 233 184 161z" class="circle"/>
<path d="M3782 5608 c-28 -28 -3 -72 39 -66 30 4 47 33 33 56 -14 21 -55 27
-72 10z" class="dot"/>
<path d="M1967 5719 c23 -10 382 -10 405 -1 10 4 -82 7 -203 7 -121 1 -212 -2
-202 -6z" class="vine"/>
<path d="M1717 5633 c50 -63 73 -106 73 -138 0 -29 -1 -29 -26 15 -29 52 -92
120 -111 120 -11 0 -22 -30 -38 -108 -6 -30 -1 -40 80 -133 53 -60 91 -112 95
-132 l7 -32 13 30 c26 61 50 170 50 225 0 78 -28 116 -124 166 l-49 26 30 -39z" class="leaf"/>
<path d="M9905 5537 c-11 -58 -1 -187 18 -224 19 -36 83 -77 137 -88 l35 -7
-46 35 c-50 39 -79 77 -79 104 1 17 1 17 11 0 15 -25 108 -97 126 -97 13 0 14
10 9 61 -4 33 -9 66 -12 72 -2 7 -33 32 -68 56 -67 45 -110 85 -118 111 -3 8
-9 -2 -13 -23z" class="leaf"/>
<path d="M11050 5533 c-559 -55 -1068 -327 -1490 -796 -172 -192 -264 -315
-497 -667 -119 -179 -225 -336 -237 -349 -11 -12 -61 -43 -109 -67 -213 -108
-466 -159 -657 -134 -189 24 -180 24 -180 7 0 -26 30 -36 187 -63 117 -20 205
-27 418 -34 375 -12 478 -30 629 -108 155 -80 240 -185 221 -273 -11 -50 -45
-68 -119 -62 -60 5 -64 4 -71 -18 -6 -18 -1 -29 24 -51 39 -35 85 -37 131 -5
103 70 105 185 4 297 -58 65 -12 33 71 -48 50 -50 83 -94 109 -145 63 -123 61
-200 -6 -273 -60 -65 -94 -71 -235 -44 -106 21 -114 21 -138 6 -36 -23 -32
-58 10 -94 62 -55 186 -55 296 0 83 41 127 103 145 203 6 37 8 38 14 15 21
-70 5 -221 -33 -303 -50 -109 -127 -156 -302 -186 -116 -19 -155 -35 -179 -73
-14 -24 30 -85 72 -99 90 -30 246 32 351 139 77 79 115 149 137 252 34 163
-19 378 -133 533 -34 47 -35 49 -12 42 124 -38 406 -233 572 -394 186 -180
236 -273 337 -627 55 -192 117 -335 171 -393 80 -84 194 -80 220 8 22 75 -27
150 -80 122 -23 -13 -37 -52 -27 -77 6 -15 8 -15 31 0 32 21 45 13 45 -28 0
-61 -60 -85 -122 -49 -36 22 -113 135 -144 212 -12 31 -32 99 -44 151 -42 186
-71 276 -120 377 l-49 102 48 -34 c111 -80 212 -98 307 -56 87 39 124 91 124
174 0 134 -126 209 -219 131 -60 -50 -47 -115 26 -130 42 -8 87 32 77 70 -9
36 2 47 31 34 31 -14 55 -65 55 -116 0 -84 -84 -152 -190 -152 -102 0 -138 25
-452 311 -234 215 -303 260 -683 455 -309 158 -446 204 -659 220 -48 4 -83 10
-79 14 4 4 58 24 118 44 156 53 299 124 540 271 244 148 525 289 675 339 210
69 387 86 462 44 81 -46 89 -129 18 -185 -27 -23 -112 -44 -126 -32 -16 13
-86 8 -91 -8 -2 -6 7 -19 20 -28 22 -14 31 -14 98 0 91 19 151 54 173 99 26
56 19 93 -27 144 -21 22 -19 22 68 -8 99 -35 219 -96 279 -143 81 -64 114
-213 64 -287 -38 -56 -71 -74 -143 -78 -63 -4 -66 -3 -105 32 -45 40 -74 46
-90 16 -9 -16 -6 -25 13 -44 32 -32 85 -46 171 -46 89 0 147 26 184 83 23 35
27 51 27 111 0 48 -6 82 -18 104 -10 17 -14 32 -9 32 19 0 317 -323 342 -371
17 -31 7 -146 -19 -229 -23 -73 -48 -102 -126 -145 -66 -37 -85 -54 -85 -77 0
-42 107 -10 161 49 54 57 93 164 105 283 3 39 10 72 14 75 4 2 29 -6 56 -19
145 -70 219 -62 446 48 148 72 193 85 284 86 140 0 238 -65 313 -209 88 -169
87 -295 -2 -350 -19 -12 -43 -21 -53 -21 -13 1 -8 5 13 15 52 22 58 86 9 104
-53 21 -96 -10 -96 -68 1 -91 94 -116 166 -45 54 55 65 124 40 246 -31 142
-121 267 -233 323 -48 24 -74 30 -149 33 -112 5 -169 -10 -303 -79 -53 -27
-112 -52 -131 -56 l-35 -6 42 45 c48 53 69 110 59 162 -9 46 -61 114 -106 137
-70 38 -155 16 -185 -47 -22 -46 -19 -78 11 -113 21 -25 33 -31 65 -31 41 0
79 26 79 55 0 21 -46 49 -67 40 -16 -6 -16 -8 3 -15 30 -12 38 -28 24 -45 -31
-37 -90 4 -90 62 0 48 37 83 87 83 98 0 182 -125 139 -208 -37 -71 -167 -129
-261 -117 -78 10 -123 44 -243 183 -299 348 -519 486 -857 535 l-90 13 85 15
c55 9 151 14 275 13 305 -1 488 -36 1025 -194 328 -96 423 -115 535 -105 44 4
110 8 147 9 81 1 101 -11 175 -110 54 -72 85 -93 140 -94 46 0 96 46 96 89 0
35 -24 68 -42 57 -6 -4 -11 -24 -11 -44 0 -42 -23 -82 -47 -82 -35 0 -102 51
-137 104 -40 60 -69 86 -116 106 -16 7 -30 16 -30 20 0 4 49 44 108 88 146
109 224 192 267 284 63 135 70 237 19 298 -22 25 -33 30 -70 30 -81 0 -145
-87 -98 -134 8 -9 26 -16 38 -16 47 0 60 56 16 67 -27 7 -25 17 6 42 35 27 59
26 89 -4 30 -29 32 -70 9 -159 -31 -122 -69 -183 -183 -296 -113 -112 -166
-147 -301 -194 l-75 -27 64 58 c78 70 134 154 161 241 29 94 24 97 -14 10 -71
-164 -189 -262 -329 -275 -90 -8 -207 16 -497 102 -462 136 -654 169 -975 169
-261 0 -380 -18 -595 -90 -186 -62 -294 -117 -517 -266 -182 -120 -329 -205
-340 -195 -2 3 12 17 32 33 65 49 185 203 333 428 189 287 262 384 362 480 99
94 183 138 276 144 56 4 64 2 92 -24 49 -46 47 -100 -8 -174 -22 -29 -40 -61
-40 -71 0 -50 81 -11 110 54 29 63 26 116 -10 165 -16 23 -30 46 -30 51 0 23
116 -35 152 -75 30 -34 58 -108 58 -156 0 -40 -5 -53 -40 -93 -22 -25 -40 -50
-40 -55 0 -5 10 -16 21 -24 50 -35 109 32 109 125 0 120 -78 244 -181 288 -75
33 -190 31 -295 -4 -157 -52 -214 -110 -518 -524 -86 -117 -192 -257 -236
-310 -78 -96 -213 -234 -260 -265 -34 -22 -70 -21 -70 2 0 21 166 302 272 459
341 510 677 834 1089 1052 220 116 330 151 475 151 160 0 290 -40 374 -116 66
-60 76 -143 29 -235 -11 -23 -16 -38 -10 -34 17 10 58 96 66 136 16 87 -42
177 -149 229 -76 37 -194 63 -264 57 -65 -5 -56 4 28 29 53 15 96 18 230 18
143 -1 178 -5 262 -27 241 -64 376 -184 410 -364 9 -48 8 -71 -2 -107 -26 -94
-123 -139 -160 -74 -18 34 -6 61 31 66 20 3 21 2 10 -12 -15 -17 -7 -36 15
-36 20 0 29 27 14 45 -15 18 -61 20 -78 3 -22 -22 -14 -75 14 -97 32 -25 100
-28 132 -5 68 47 88 191 42 309 -62 162 -295 292 -580 325 -84 10 -102 10
-170 3z" class="vine"/>
<path d="M10527 5280 c51 -29 70 -47 60 -56 -3 -3 -28 6 -56 20 -83 42 -96 34
-62 -39 23 -51 43 -69 111 -95 30 -12 70 -35 88 -53 37 -36 37 -39 16 61 -27
134 -80 192 -177 192 -32 0 -32 0 20 -30z" class="leaf"/>
<path d="M3370 5294 c0 -3 18 -28 40 -57 46 -61 70 -115 70 -154 0 -25 -4 -22
-31 27 -27 50 -114 150 -130 150 -5 0 -21 -62 -35 -141 -5 -35 -1 -43 82 -145
48 -60 92 -115 97 -122 6 -7 13 -30 17 -50 l7 -37 12 30 c21 51 51 177 57 246
8 80 -5 125 -49 166 -31 31 -137 98 -137 87z" class="leaf"/>
<path d="M9302 5185 c-46 -106 -73 -278 -53 -337 15 -45 67 -97 133 -133 l51
-28 -53 75 c-41 60 -53 86 -57 124 l-4 49 30 -55 c30 -58 110 -150 128 -150
11 0 26 55 38 137 6 36 1 44 -94 163 -68 84 -101 134 -103 155 l-4 30 -12 -30z" class="leaf"/>
<path d="M2104 4928 c41 -198 66 -235 167 -248 27 -4 49 -5 49 -4 0 1 -19 13
-43 27 -38 23 -88 67 -74 67 3 0 34 -13 68 -30 72 -34 87 -29 70 23 -19 56
-47 84 -109 107 -31 12 -74 35 -95 51 -37 30 -38 30 -33 7z" class="leaf"/>
<path d="M2720 4765 c0 -3 25 -29 55 -58 30 -29 55 -62 55 -72 0 -15 -6 -13
-32 14 -51 52 -96 83 -109 76 -11 -8 -7 -93 7 -129 3 -9 42 -41 86 -72 44 -31
85 -68 91 -81 10 -23 12 -23 18 -6 11 27 10 163 -1 202 -11 40 -43 77 -84 98
-33 17 -86 34 -86 28z" class="leaf"/>
<path d="M10970 4678 c-12 -40 -24 -108 -27 -150 -5 -73 -4 -80 21 -112 22
-29 119 -96 140 -96 3 0 -15 27 -40 59 -34 44 -47 70 -50 102 l-5 44 22 -40
c21 -39 106 -135 120 -135 4 0 15 32 23 71 19 81 27 63 -91 202 -41 47 -73 94
-73 106 0 42 -17 20 -40 -51z" class="leaf"/>
<path d="M8909 4538 c-74 -42 -101 -143 -56 -208 51 -75 124 -98 199 -61 83
40 111 135 63 216 -42 73 -133 96 -206 53z m157 -41 c29 -26 37 -42 40 -77 6
-54 -9 -86 -55 -117 -87 -59 -202 15 -188 120 9 65 58 105 130 106 29 1 45 -6
73 -32z" class="circle"/>
<path d="M8950 4430 c-21 -40 12 -80 54 -64 22 8 31 50 16 69 -18 22 -57 19
-70 -5z" class="dot"/>
<path d="M11790 4513 c0 -22 -46 -68 -124 -121 -65 -45 -93 -121 -67 -185 6
-16 11 -15 53 17 26 20 57 50 69 68 13 17 25 26 27 20 6 -19 -35 -78 -81 -116
-23 -19 -39 -37 -37 -39 3 -3 32 7 66 23 95 43 108 69 112 214 3 76 0 122 -7
129 -8 8 -11 5 -11 -10z" class="leaf"/>
<path d="M8040 4483 c-46 -17 -68 -81 -38 -111 20 -20 66 -15 73 9 8 26 -8 44
-30 35 -14 -5 -15 -9 -6 -20 17 -21 -4 -30 -23 -10 -22 21 -20 40 5 65 45 45
149 -4 193 -92 23 -46 26 -65 26 -149 0 -227 -93 -388 -322 -556 -95 -69 -109
-90 -36 -53 190 95 338 277 389 477 35 138 18 250 -51 334 -47 57 -129 90
-180 71z" class="vine"/>
<path d="M1990 4458 c0 -3 23 -19 50 -36 65 -40 65 -60 0 -27 -71 36 -84 34
-75 -11 11 -59 26 -74 115 -117 47 -23 89 -43 94 -45 15 -8 -5 102 -27 147
-12 25 -33 53 -47 63 -23 16 -110 37 -110 26z" class="leaf"/>
<path d="M1815 4397 c-37 -37 -51 -93 -40 -164 l7 -46 18 31 c10 16 32 38 48
47 37 22 62 64 62 103 0 43 -11 45 -53 11 -45 -37 -47 -31 -6 16 24 27 27 35
14 35 -9 0 -32 -15 -50 -33z" class="leaf"/>
<path d="M11079 4119 c-42 -46 -41 -99 5 -145 26 -26 42 -34 71 -34 29 0 45 8
71 34 38 38 44 77 19 126 -19 37 -43 50 -95 50 -34 0 -48 -6 -71 -31z m119 -5
c54 -37 47 -114 -12 -139 -39 -17 -82 -2 -101 36 -21 40 -19 57 14 90 33 32
65 37 99 13z" class="circle"/>
<path d="M11140 4044 c0 -17 22 -14 28 4 2 7 -3 12 -12 12 -9 0 -16 -7 -16
-16z" class="dot"/>
<path d="M8480 4081 c1 -3 15 -15 33 -26 17 -11 53 -52 79 -92 26 -40 57 -77
68 -83 11 -6 49 -13 85 -17 84 -8 85 5 5 90 -33 36 -60 68 -60 71 0 14 47 -19
97 -67 29 -28 55 -49 57 -46 10 9 -42 104 -72 132 -16 16 -47 33 -68 38 -43
10 -224 10 -224 0z" class="leaf"/>
<path d="M9700 3901 c0 -20 51 -114 91 -168 22 -29 35 -53 29 -53 -23 0 -94
78 -131 144 l-41 71 6 -68 c10 -120 58 -193 146 -222 59 -19 270 -58 277 -52
3 3 -9 13 -26 21 -30 16 -66 80 -123 221 -21 52 -30 62 -72 84 -52 27 -156 42
-156 22z" class="leaf"/>
<path d="M4884 3869 c-31 -35 -76 -48 -201 -59 -175 -15 -218 -33 -253 -104
-34 -71 -30 -79 38 -71 99 12 195 35 237 56 l40 21 -25 -27 c-14 -15 -36 -33
-50 -40 -32 -16 -159 -45 -199 -45 -17 0 -31 -5 -31 -11 0 -8 44 -10 148 -8
132 4 151 6 184 27 20 13 46 37 57 55 19 32 84 218 77 224 -1 2 -11 -7 -22
-18z" class="leaf"/>
<path d="M2550 3842 c0 -26 41 -159 66 -209 39 -80 98 -108 249 -118 l80 -6
-77 29 c-87 33 -152 72 -168 102 -10 19 -7 19 29 -5 40 -27 210 -87 223 -79
10 6 -11 74 -35 113 -24 41 -72 63 -193 91 -93 22 -127 38 -156 74 -10 11 -18
15 -18 8z" class="leaf"/>
<path d="M3244 3789 c-3 -6 -48 -30 -100 -54 l-93 -43 -16 -57 c-9 -31 -14
-59 -11 -62 3 -3 29 6 58 20 29 14 54 24 57 22 8 -8 -23 -37 -61 -56 -21 -11
-38 -22 -38 -25 0 -11 105 8 127 22 36 23 70 102 87 207 7 37 3 47 -10 26z" class="leaf"/>
<path d="M3792 3639 c-51 -5 -285 -47 -519 -94 -536 -109 -706 -161 -1001
-309 -235 -118 -304 -123 -472 -38 -108 55 -155 64 -229 42 -89 -25 -151 -153
-105 -218 19 -28 65 -52 99 -52 20 0 25 5 25 25 0 13 -9 41 -20 62 -31 61 -35
95 -12 123 18 22 28 25 84 25 56 0 76 -6 161 -48 123 -61 198 -75 280 -55 39
10 57 12 54 4 -3 -6 -56 -80 -119 -164 -139 -186 -201 -288 -247 -407 -33 -85
-35 -96 -35 -210 1 -143 20 -225 70 -301 62 -93 154 -134 252 -114 98 21 172
97 172 175 0 58 -32 87 -104 93 -48 4 -57 1 -80 -21 -49 -50 -25 -92 53 -92
58 0 64 -20 21 -68 -86 -99 -222 -58 -293 86 -34 71 -46 126 -47 212 0 136 50
292 134 416 83 125 249 330 309 384 71 63 206 160 213 152 3 -3 -6 -27 -19
-54 -106 -208 -94 -452 26 -531 34 -23 51 -27 100 -25 73 2 95 18 27 19 -175
3 -244 231 -136 449 67 134 143 189 363 261 269 88 652 159 965 180 103 6 158
2 158 -14 0 -4 -46 -34 -102 -67 -167 -98 -273 -217 -316 -355 -6 -19 -16 -79
-22 -133 -17 -162 -59 -241 -162 -308 -77 -49 -168 -73 -257 -67 -119 9 -169
58 -179 174 -6 79 14 136 64 185 30 30 42 34 85 34 46 0 54 -4 85 -37 27 -30
34 -46 34 -78 0 -65 -55 -103 -94 -64 -16 16 -9 45 14 59 14 9 12 25 -3 25
-22 0 -57 -44 -57 -72 0 -35 30 -58 74 -58 31 0 46 7 77 39 34 33 39 45 39 83
0 86 -70 148 -165 148 -83 0 -152 -59 -181 -156 -40 -132 4 -256 109 -309 42
-21 65 -25 131 -25 45 1 98 7 119 14 20 8 37 11 37 7 0 -12 -116 -141 -155
-172 -53 -42 -132 -79 -170 -79 -125 0 -203 108 -124 174 37 31 62 33 89 6 25
-25 17 -41 -18 -38 -24 3 -27 0 -27 -27 0 -39 35 -47 59 -13 51 72 -21 136
-104 93 -36 -19 -50 -43 -50 -87 0 -115 151 -175 281 -111 69 34 422 377 450
438 15 34 19 37 25 20 73 -200 206 -325 345 -327 53 0 79 14 79 42 0 28 -20
37 -104 44 -44 4 -95 14 -115 22 -70 29 -134 107 -165 202 -15 43 -17 80 -14
195 3 138 4 145 36 209 79 160 331 324 533 347 302 34 751 -117 1355 -456 150
-84 331 -173 353 -173 6 0 12 -3 14 -7 3 -5 -99 -8 -226 -8 -211 0 -238 -2
-302 -22 -144 -45 -206 -110 -336 -352 -41 -75 -89 -152 -107 -173 -87 -97
-250 -105 -313 -16 -29 40 -35 97 -15 136 20 39 42 41 51 5 10 -40 24 -53 55
-53 42 0 59 9 76 43 15 28 15 32 -4 56 -10 14 -36 32 -57 40 -32 13 -43 13
-78 0 -52 -18 -79 -55 -85 -118 -6 -62 24 -129 76 -169 29 -22 47 -27 109 -30
64 -4 80 -1 128 23 56 27 110 81 148 147 12 21 25 38 28 38 3 0 6 -26 8 -57 1
-32 9 -114 17 -183 19 -148 15 -295 -11 -360 -23 -58 -66 -100 -105 -100 -34
0 -70 31 -70 60 0 16 6 20 28 18 38 -3 52 8 52 41 0 35 -19 52 -60 53 -39 1
-59 -18 -66 -64 -8 -48 20 -105 61 -125 75 -36 160 19 191 122 20 70 22 256 5
400 -6 50 -11 129 -11 176 0 82 2 91 42 170 50 101 122 180 193 214 78 37 206
48 385 35 284 -22 459 -24 540 -7 41 9 84 19 95 22 14 5 11 -2 -12 -24 -18
-17 -33 -32 -33 -34 0 -1 27 -4 59 -5 55 -3 62 -1 112 37 28 21 80 53 115 70
63 31 63 31 53 61 -13 36 -20 37 -84 7 -70 -33 -198 -52 -350 -51 -195 0 -284
33 -401 144 -111 106 -168 210 -162 299 3 43 6 48 53 78 96 62 119 113 69 152
-32 25 -105 29 -124 6 -20 -25 -1 -38 47 -31 82 11 70 -48 -24 -110 -51 -35
-58 -43 -55 -68 3 -26 -9 -16 -98 77 -136 142 -192 172 -328 172 -90 0 -95 -1
-118 -28 -23 -27 -31 -71 -16 -93 30 -47 165 -75 179 -38 9 24 -10 49 -41 52
-21 3 -26 -1 -26 -17 0 -26 -10 -26 -44 0 -32 25 -33 51 -3 79 19 19 32 21 92
18 159 -7 265 -97 404 -342 50 -89 100 -163 128 -191 26 -25 43 -45 39 -45
-13 0 -152 73 -290 153 -156 90 -335 171 -618 280 -326 126 -513 177 -723 197
-121 11 -138 11 -273 -1z" class="vine"/>
<path d="M9229 3617 c-90 -60 -89 -181 2 -249 64 -48 166 -23 207 51 57 101
-12 221 -128 221 -32 0 -58 -7 -81 -23z m138 -27 c103 -62 59 -210 -62 -210
-55 0 -105 52 -105 110 0 23 5 50 11 61 14 27 68 59 99 59 14 0 39 -9 57 -20z" class="circle"/>
<path d="M9280 3510 c-9 -16 -8 -25 1 -36 26 -32 84 0 62 34 -16 26 -50 27
-63 2z" class="dot"/>
<path d="M3338 3434 c-58 -31 -75 -116 -35 -175 42 -63 133 -71 187 -17 54 54
49 132 -12 183 -34 29 -97 33 -140 9z m136 -45 c33 -39 33 -79 1 -117 -32 -39
-74 -48 -114 -28 -37 20 -51 44 -51 89 0 82 110 120 164 56z" class="circle"/>
<path d="M3384 3339 c-9 -15 11 -33 30 -26 9 4 13 13 10 22 -7 17 -30 20 -40
4z" class="dot"/>
<path d="M1949 3407 c-38 -26 -64 -84 -55 -122 4 -14 19 -40 35 -58 26 -28 36
-32 80 -32 43 0 55 5 82 31 35 36 47 95 27 134 -18 33 -75 70 -108 70 -15 0
-42 -10 -61 -23z m142 -51 c49 -79 -38 -174 -120 -132 -37 20 -51 44 -51 88 0
94 121 125 171 44z" class="circle"/>
<path d="M1980 3335 c-26 -32 13 -81 48 -59 34 22 22 74 -18 74 -10 0 -23 -7
-30 -15z" class="dot"/>
<path d="M11640 3412 c0 -27 45 -172 62 -199 28 -46 9 -41 -25 7 -29 40 -67
139 -67 172 0 10 -4 18 -10 18 -13 0 -13 -125 1 -174 16 -56 79 -116 201 -190
l107 -66 -30 43 c-21 31 -33 63 -41 113 -24 151 -42 186 -127 246 -55 38 -71
45 -71 30z" class="leaf"/>
<path d="M4540 3383 c-47 -18 -75 -52 -123 -151 -40 -80 -60 -110 -84 -125
-18 -10 -33 -20 -33 -22 0 -5 147 7 194 16 89 17 129 66 170 207 16 57 6 71
-15 21 -20 -49 -85 -127 -122 -145 l-32 -16 32 33 c30 32 113 165 113 181 0 9
-77 9 -100 1z" class="leaf"/>
<path d="M8513 3362 c13 -66 73 -208 105 -250 l35 -46 -34 21 c-49 31 -97 102
-135 201 l-33 87 0 -80 c-1 -150 38 -237 131 -292 46 -28 310 -123 341 -123 6
0 -7 14 -30 30 -50 37 -68 73 -99 201 -13 55 -31 113 -39 129 -31 61 -95 104
-194 134 l-53 16 5 -28z" class="leaf"/>
<path d="M9960 3360 c0 -29 -13 -49 -81 -132 -26 -31 -50 -67 -54 -79 -9 -28
2 -102 20 -125 14 -19 14 -19 34 1 11 11 36 49 56 85 31 58 35 62 35 35 0 -18
-17 -59 -40 -99 -22 -38 -39 -70 -37 -72 9 -9 105 81 119 113 23 51 22 74 -8
178 -30 105 -43 133 -44 95z" class="leaf"/>
<path d="M8090 3309 c-19 -4 -47 -21 -62 -38 -23 -26 -28 -41 -28 -82 0 -45 4
-55 34 -85 30 -30 40 -34 84 -34 40 0 57 6 81 26 100 84 20 241 -109 213z
m100 -54 c18 -18 25 -36 25 -64 0 -45 -17 -69 -62 -88 -28 -11 -38 -11 -67 1
-40 17 -56 42 -56 86 0 89 96 128 160 65z" class="circle"/>
<path d="M8105 3200 c-8 -14 3 -30 21 -30 8 0 14 9 14 20 0 21 -24 28 -35 10z" class="dot"/>
<path d="M5180 3097 c-94 -32 -107 -177 -20 -222 66 -34 141 -10 175 55 31 61
5 132 -59 161 -48 22 -50 22 -96 6z m113 -57 c35 -39 35 -79 1 -119 -21 -26
-33 -31 -69 -31 -100 0 -134 126 -47 175 37 21 81 11 115 -25z" class="circle"/>
<path d="M5190 3001 c-13 -25 -4 -48 21 -56 38 -12 65 35 37 63 -18 18 -46 14
-58 -7z" class="dot"/>
<path d="M3685 3084 c-22 -8 -50 -22 -63 -32 l-23 -17 73 -40 c40 -22 94 -47
122 -56 31 -10 45 -19 37 -23 -23 -15 -102 5 -177 44 -41 21 -74 34 -74 30 0
-5 25 -36 55 -69 73 -78 125 -99 201 -83 61 12 271 98 281 115 4 6 -2 8 -16 4
-37 -9 -87 11 -187 78 -85 57 -102 65 -143 64 -25 0 -64 -7 -86 -15z" class="leaf"/>
<path d="M7970 3055 c0 -8 27 -45 61 -82 127 -142 194 -265 229 -421 20 -88
-5 -195 -81 -342 -76 -147 -176 -214 -240 -161 -24 19 -24 19 -5 54 25 49 7
76 -28 41 -25 -25 -20 -81 9 -110 22 -22 31 -25 68 -19 27 5 38 4 32 -3 -19
-18 -78 -32 -137 -32 -52 0 -63 3 -89 29 -37 37 -37 66 1 141 34 68 37 90 12
90 -47 0 -82 -59 -82 -138 0 -40 22 -85 52 -106 38 -27 12 -28 -39 -3 -104 54
-130 105 -112 223 14 94 9 114 -25 114 -57 0 -75 -123 -32 -215 31 -67 78
-110 145 -136 46 -17 73 -20 151 -17 119 4 186 34 255 110 42 47 133 212 148
268 13 50 17 11 6 -64 -29 -212 -125 -379 -292 -512 -274 -216 -583 -239 -765
-57 -78 78 -127 202 -108 277 10 41 55 85 120 118 33 16 72 40 84 52 55 49 68
120 30 156 -33 31 -118 24 -175 -14 -136 -90 -195 -335 -119 -490 56 -114 189
-213 331 -245 227 -52 507 44 709 244 89 88 158 197 200 313 30 84 31 93 30
247 0 148 -2 166 -28 245 -53 159 -146 321 -238 413 -47 47 -78 60 -78 32z" class="vine"/>
<path d="M10403 3055 c-7 -19 -58 -46 -133 -70 -30 -10 -65 -25 -78 -33 -39
-25 -88 -142 -60 -142 7 0 46 18 86 39 39 21 72 35 72 31 0 -14 -47 -49 -105
-78 l-60 -31 43 -1 c69 0 145 40 174 93 16 30 78 207 73 207 -3 0 -8 -7 -12
-15z" class="leaf"/>
<path d="M4675 2955 c14 -85 54 -179 89 -212 40 -37 81 -49 186 -58 l75 -6
-78 30 c-79 31 -120 56 -145 93 -13 18 -10 17 24 -6 33 -23 176 -76 204 -76 5
0 3 21 -5 48 -22 74 -63 104 -176 132 -108 26 -141 41 -164 72 -17 23 -17 22
-10 -17z" class="leaf"/>
<path d="M7916 2841 c-36 -5 -45 -14 -105 -98 -36 -51 -75 -97 -86 -103 -34
-17 183 -6 226 12 37 16 68 66 84 132 6 26 1 24 -47 -27 -30 -32 -62 -57 -73
-57 -18 0 -17 2 4 16 26 18 81 101 81 121 0 14 -18 14 -84 4z" class="leaf"/>
<path d="M5260 2707 c-49 -17 -101 -49 -97 -62 5 -15 165 -77 222 -85 l50 -7
-39 -8 c-46 -9 -124 6 -202 41 -30 13 -54 22 -54 19 0 -2 29 -24 64 -49 116
-83 187 -103 261 -72 34 15 180 110 188 123 3 5 -15 6 -40 4 -38 -3 -63 5
-152 47 -121 58 -152 65 -201 49z" class="leaf"/>
<path d="M9920 2595 c-35 -36 -74 -68 -85 -72 -18 -6 -17 -7 9 -14 16 -5 59
-11 95 -15 94 -9 132 9 166 77 l27 52 -44 -36 c-24 -19 -57 -39 -73 -42 -29
-7 -28 -6 11 23 23 17 49 41 58 54 15 21 15 23 -1 30 -10 3 -36 7 -58 7 -37 1
-46 -5 -105 -64z" class="leaf"/>
<path d="M8461 2257 c-25 -7 -46 -17 -48 -24 -5 -15 72 -72 155 -114 34 -18
60 -34 58 -37 -13 -12 -82 13 -156 58 -46 28 -85 48 -87 46 -2 -2 23 -33 57
-69 104 -112 169 -127 340 -82 105 29 134 45 80 45 -38 0 -76 23 -186 111 -66
53 -118 80 -153 78 -9 0 -36 -6 -60 -12z" class="leaf"/>
<path d="M6226 1674 c-10 -37 22 -79 185 -248 74 -78 154 -170 178 -205 62
-91 121 -223 134 -298 10 -55 9 -68 -7 -97 -45 -84 -169 -97 -250 -26 -63 56
-72 135 -21 186 38 38 55 32 55 -19 0 -69 39 -93 99 -62 35 18 42 43 25 83
-38 91 -167 94 -225 6 -60 -92 -8 -208 114 -253 50 -19 130 -13 167 12 61 41
75 69 74 155 0 66 -7 94 -43 190 -24 62 -40 116 -36 120 4 4 46 -34 94 -84 90
-96 172 -220 202 -307 24 -67 25 -174 3 -207 -41 -61 -76 -65 -124 -15 -37 38
-64 44 -78 17 -22 -41 36 -102 97 -102 76 0 138 54 148 128 8 56 19 45 26 -25
10 -116 -29 -245 -89 -292 -35 -28 -88 -36 -136 -22 -29 9 -62 35 -118 93 -81
82 -109 95 -133 57 -37 -58 98 -192 215 -213 46 -8 108 7 160 40 22 14 42 23
44 21 8 -7 -66 -90 -119 -134 -115 -95 -217 -96 -377 -3 -115 67 -165 62 -162
-17 4 -103 204 -179 361 -139 92 24 154 61 225 137 107 113 155 243 156 419 0
102 -18 178 -66 280 -41 87 -169 282 -213 324 -37 36 -42 62 -8 51 44 -15 280
-18 366 -4 72 11 81 14 66 25 -10 8 -22 11 -26 8 -5 -3 -61 -5 -126 -5 -182 0
-306 33 -457 123 -83 49 -221 179 -283 266 -51 70 -86 83 -97 36z" class="vine"/>
<path d="M6661 1684 c0 -7 -39 -29 -86 -50 -69 -31 -86 -43 -95 -67 -11 -32
-13 -67 -5 -67 14 0 81 33 97 47 10 9 20 14 22 12 9 -8 -20 -36 -64 -62 -31
-19 -39 -27 -25 -27 37 0 95 21 114 41 23 25 54 127 48 159 -2 14 -5 20 -6 14z" class="leaf"/>
<path d="M6195 1350 c-49 -33 -99 -60 -110 -60 -34 -1 49 -39 133 -61 95 -24
126 -16 181 49 22 25 39 48 37 49 -2 2 -30 -11 -63 -28 -34 -18 -70 -29 -84
-27 -22 4 -20 6 15 21 52 23 108 66 104 79 -4 12 -82 38 -108 37 -8 0 -55 -27
-105 -59z" class="leaf"/>
</g>
</svg>